#N canvas 116 120 1207 560 10;
#X obj 571 55 r seg;
#X obj 553 235 line~;
#X obj 571 96 t b b f;
#X obj 684 381 osc~ 300;
#X obj 504 426 *~;
#X obj 385 536 dac~, f 92;
#X obj 606 232 mtof;
#X obj 637 200 + 60;
#X msg 522 179 0 100;
#X obj 513 147 del 20;
#X obj 749 129 % 7;
#X obj 721 54 t f f;
#X obj 673 117 / 7;
#X obj 673 139 i;
#X obj 733 240 +;
#X obj 677 193 * 12;
#X obj 749 151 select 0 1 2 3 4 5 6;
#X obj 774 264 i;
#X obj 749 94 i;
#X msg 747 182 0;
#X msg 785 183 3;
#X msg 810 205 5;
#X msg 770 206 2;
#X msg 824 182 7;
#X msg 848 207 8;
#X msg 864 184 11;
#X obj 635 68 % 11;
#X obj 684 302 osc~ 430;
#X obj 684 324 *~ 500;
#X obj 684 346 +~ 300;
#X obj 612 318 osc~ 300;
#X obj 605 400 *~;
#X obj 644 264 mtof;
#X obj 641 221 - 24;
#X obj 684 413 *~ 0.3;
#X obj 878 233 r head;
#X obj 879 360 line~;
#X obj 924 401 *~;
#X obj 998 199 noise~;
#X obj 874 257 t b b f;
#X obj 816 308 del 20;
#X msg 893 311 1 10;
#X obj 877 389 *~;
#X obj 1115 377 line~;
#X obj 1110 274 t b b f;
#X obj 1052 325 del 20;
#X msg 1129 328 1 10;
#X obj 1113 406 *~;
#X obj 1115 250 r pick;
#X obj 1056 431 *~;
#X obj 94 240 line~;
#X obj 112 101 t b b f;
#X obj 93 451 *~;
#X obj 147 237 mtof;
#X obj 54 152 del 20;
#X msg 131 155 1 10;
#X obj 290 134 % 7;
#X obj 229 86 t f f;
#X obj 214 122 / 7;
#X obj 214 144 i;
#X obj 274 245 +;
#X obj 218 198 * 12;
#X obj 290 156 select 0 1 2 3 4 5 6;
#X obj 315 269 i;
#X obj 290 99 i;
#X obj 225 329 *~ 500;
#X obj 225 351 +~ 300;
#X obj 153 323 osc~ 300;
#X obj 146 405 *~;
#X obj 185 269 mtof;
#X obj 182 226 - 24;
#X obj 225 418 *~ 0.3;
#X obj 140 9 r ins;
#X obj 22 38 i 0;
#X obj 54 39 + 1;
#X obj 17 102 % 4;
#X obj 17 124 select 0;
#X obj 142 38 t b f;
#X obj 670 456 *~ 0.3;
#X obj 962 481 *~ 0.2;
#X obj 225 307 osc~ 1430;
#X msg 63 184 0 1000;
#X obj 502 460 *~ 0.3;
#X obj 178 205 + 72;
#X obj 226 386 osc~ 300;
#X obj 229 58 % 5;
#X obj 184 472 *~ 0.1;
#X msg 288 187 2;
#X msg 326 188 2;
#X msg 389 212 2;
#X msg 405 188 2;
#X msg 311 211 3;
#X msg 351 210 5;
#X msg 365 187 3;
#X msg 590 150 1 10;
#X obj 1000 366 lop~ 1000;
#X obj 942 434 lop~ 1100;
#X obj 812 463 *~ 0.2;
#X msg 1062 357 0 80;
#X msg 825 339 0 120;
#X connect 0 0 2 0;
#X connect 1 0 4 0;
#X connect 1 0 31 0;
#X connect 2 0 9 0;
#X connect 2 1 94 0;
#X connect 2 2 26 0;
#X connect 3 0 34 0;
#X connect 4 0 82 0;
#X connect 6 0 30 0;
#X connect 7 0 6 0;
#X connect 7 0 33 0;
#X connect 8 0 1 0;
#X connect 9 0 8 0;
#X connect 10 0 16 0;
#X connect 11 0 12 0;
#X connect 11 1 18 0;
#X connect 12 0 13 0;
#X connect 13 0 15 0;
#X connect 14 0 7 0;
#X connect 15 0 14 0;
#X connect 16 0 19 0;
#X connect 16 1 22 0;
#X connect 16 2 20 0;
#X connect 16 3 21 0;
#X connect 16 4 23 0;
#X connect 16 5 24 0;
#X connect 16 6 25 0;
#X connect 17 0 14 1;
#X connect 18 0 10 0;
#X connect 19 0 17 0;
#X connect 20 0 17 0;
#X connect 21 0 17 0;
#X connect 22 0 17 0;
#X connect 23 0 17 0;
#X connect 24 0 17 0;
#X connect 25 0 17 0;
#X connect 26 0 11 0;
#X connect 27 0 28 0;
#X connect 28 0 29 0;
#X connect 29 0 3 0;
#X connect 30 0 31 1;
#X connect 31 0 78 0;
#X connect 32 0 27 0;
#X connect 33 0 32 0;
#X connect 34 0 4 1;
#X connect 35 0 39 0;
#X connect 36 0 42 0;
#X connect 36 0 42 1;
#X connect 37 0 96 0;
#X connect 38 0 37 1;
#X connect 38 0 95 0;
#X connect 39 0 40 0;
#X connect 39 1 41 0;
#X connect 40 0 99 0;
#X connect 41 0 36 0;
#X connect 42 0 37 0;
#X connect 43 0 47 0;
#X connect 43 0 47 1;
#X connect 44 0 45 0;
#X connect 44 1 46 0;
#X connect 45 0 98 0;
#X connect 46 0 43 0;
#X connect 47 0 49 1;
#X connect 48 0 44 0;
#X connect 49 0 79 0;
#X connect 50 0 52 0;
#X connect 50 0 68 0;
#X connect 51 0 54 0;
#X connect 51 1 55 0;
#X connect 52 0 86 0;
#X connect 53 0 67 0;
#X connect 54 0 81 0;
#X connect 55 0 50 0;
#X connect 56 0 62 0;
#X connect 57 0 58 0;
#X connect 57 1 64 0;
#X connect 58 0 59 0;
#X connect 59 0 61 0;
#X connect 60 0 83 0;
#X connect 61 0 60 0;
#X connect 62 0 87 0;
#X connect 62 1 91 0;
#X connect 62 2 88 0;
#X connect 62 3 92 0;
#X connect 62 4 93 0;
#X connect 62 5 89 0;
#X connect 62 6 90 0;
#X connect 63 0 60 1;
#X connect 64 0 56 0;
#X connect 65 0 66 0;
#X connect 66 0 84 0;
#X connect 67 0 68 1;
#X connect 68 0 86 0;
#X connect 69 0 80 0;
#X connect 70 0 69 0;
#X connect 71 0 52 1;
#X connect 72 0 77 0;
#X connect 73 0 74 0;
#X connect 73 0 75 0;
#X connect 74 0 73 1;
#X connect 75 0 76 0;
#X connect 76 0 51 0;
#X connect 77 0 73 0;
#X connect 77 0 51 0;
#X connect 77 1 85 0;
#X connect 78 0 5 1;
#X connect 79 0 5 1;
#X connect 79 0 5 0;
#X connect 80 0 65 0;
#X connect 81 0 50 0;
#X connect 82 0 5 0;
#X connect 83 0 53 0;
#X connect 83 0 70 0;
#X connect 84 0 71 0;
#X connect 85 0 57 0;
#X connect 86 0 5 0;
#X connect 87 0 63 0;
#X connect 88 0 63 0;
#X connect 89 0 63 0;
#X connect 90 0 63 0;
#X connect 91 0 63 0;
#X connect 92 0 63 0;
#X connect 93 0 63 0;
#X connect 94 0 1 0;
#X connect 95 0 49 0;
#X connect 96 0 97 0;
#X connect 97 0 5 0;
#X connect 97 0 5 1;
#X connect 98 0 43 0;
#X connect 99 0 36 0;
