#N canvas 596 170 570 560 10;
#X obj 179 14 r seg;
#X obj 161 194 line~;
#X obj 179 55 t b b f;
#X obj 292 340 osc~ 300;
#X obj 160 405 *~;
#X obj 196 493 dac~;
#X obj 214 191 mtof;
#X obj 245 159 + 60;
#X msg 130 138 0 100;
#X obj 121 106 del 20;
#X msg 198 109 1 10;
#X obj 357 88 % 7;
#X obj 329 13 t f f;
#X obj 281 76 / 7;
#X obj 281 98 i;
#X obj 341 199 +;
#X obj 285 152 * 12;
#X obj 357 110 select 0 1 2 3 4 5 6;
#X obj 382 223 i;
#X obj 357 53 i;
#X msg 355 141 0;
#X msg 393 142 3;
#X msg 418 164 5;
#X msg 378 165 2;
#X msg 432 141 7;
#X msg 456 166 8;
#X msg 472 143 11;
#X obj 243 27 % 11;
#X obj 292 261 osc~ 430;
#X obj 292 283 *~ 500;
#X obj 292 305 +~ 300;
#X obj 220 277 osc~ 300;
#X obj 213 359 *~;
#X obj 252 223 mtof;
#X obj 249 180 - 24;
#X obj 292 372 *~ 0.3;
#X obj 251 427 *~ 0.7;
#X connect 0 0 2 0;
#X connect 1 0 4 0;
#X connect 1 0 32 0;
#X connect 2 0 9 0;
#X connect 2 1 10 0;
#X connect 2 2 27 0;
#X connect 3 0 35 0;
#X connect 4 0 5 0;
#X connect 6 0 31 0;
#X connect 7 0 6 0;
#X connect 7 0 34 0;
#X connect 8 0 1 0;
#X connect 9 0 8 0;
#X connect 10 0 1 0;
#X connect 11 0 17 0;
#X connect 12 0 13 0;
#X connect 12 1 19 0;
#X connect 13 0 14 0;
#X connect 14 0 16 0;
#X connect 15 0 7 0;
#X connect 16 0 15 0;
#X connect 17 0 20 0;
#X connect 17 1 23 0;
#X connect 17 2 21 0;
#X connect 17 3 22 0;
#X connect 17 4 24 0;
#X connect 17 5 25 0;
#X connect 17 6 26 0;
#X connect 18 0 15 1;
#X connect 19 0 11 0;
#X connect 20 0 18 0;
#X connect 21 0 18 0;
#X connect 22 0 18 0;
#X connect 23 0 18 0;
#X connect 24 0 18 0;
#X connect 25 0 18 0;
#X connect 26 0 18 0;
#X connect 27 0 12 0;
#X connect 28 0 29 0;
#X connect 29 0 30 0;
#X connect 30 0 3 0;
#X connect 31 0 32 1;
#X connect 32 0 36 0;
#X connect 33 0 28 0;
#X connect 34 0 33 0;
#X connect 35 0 4 1;
#X connect 36 0 5 1;
