#N canvas 114 124 1166 592 10;
#X obj 10 44 r t0;
#X obj 10 186 *~;
#X obj 10 145 line~;
#X obj 62 45 loadbang;
#X obj 62 89 mtof;
#X obj 62 143 osc~ 440;
#X obj 477 378 dac~;
#X obj 163 188 *~;
#X obj 163 147 line~;
#X obj 215 47 loadbang;
#X obj 215 91 mtof;
#X obj 215 145 osc~ 440;
#X obj 163 46 r t1;
#X obj 303 188 *~;
#X obj 303 147 line~;
#X obj 355 47 loadbang;
#X obj 355 91 mtof;
#X obj 355 145 osc~ 440;
#X obj 446 187 *~;
#X obj 446 146 line~;
#X obj 498 46 loadbang;
#X obj 498 90 mtof;
#X obj 498 144 osc~ 440;
#X obj 303 46 r t2;
#X obj 446 45 r t3;
#X obj 62 67 i 60;
#X obj 215 69 i 67;
#X obj 355 69 i 62;
#X obj 498 68 i 64;
#X obj 570 188 *~;
#X obj 570 147 line~;
#X obj 622 47 loadbang;
#X obj 622 91 mtof;
#X obj 622 145 osc~ 440;
#X obj 723 190 *~;
#X obj 723 149 line~;
#X obj 775 49 loadbang;
#X obj 775 93 mtof;
#X obj 775 147 osc~ 440;
#X obj 863 190 *~;
#X obj 863 149 line~;
#X obj 915 49 loadbang;
#X obj 915 93 mtof;
#X obj 915 147 osc~ 440;
#X obj 1006 189 *~;
#X obj 1006 148 line~;
#X obj 1058 48 loadbang;
#X obj 1058 92 mtof;
#X obj 1058 146 osc~ 440;
#X obj 570 46 r t4;
#X obj 723 48 r t5;
#X obj 862 48 r t6;
#X obj 1006 47 r t7;
#X obj 622 69 i 70;
#X obj 775 71 i 77;
#X obj 915 71 i 72;
#X obj 1058 70 i 74;
#X obj 477 334 *~ 0.125;
#X connect 0 0 2 0;
#X connect 1 0 57 0;
#X connect 2 0 1 0;
#X connect 3 0 25 0;
#X connect 4 0 5 0;
#X connect 5 0 1 1;
#X connect 7 0 57 0;
#X connect 8 0 7 0;
#X connect 9 0 26 0;
#X connect 10 0 11 0;
#X connect 11 0 7 1;
#X connect 12 0 8 0;
#X connect 13 0 57 0;
#X connect 14 0 13 0;
#X connect 15 0 27 0;
#X connect 16 0 17 0;
#X connect 17 0 13 1;
#X connect 18 0 57 0;
#X connect 19 0 18 0;
#X connect 20 0 28 0;
#X connect 21 0 22 0;
#X connect 22 0 18 1;
#X connect 23 0 14 0;
#X connect 24 0 19 0;
#X connect 25 0 4 0;
#X connect 26 0 10 0;
#X connect 27 0 16 0;
#X connect 28 0 21 0;
#X connect 29 0 57 0;
#X connect 30 0 29 0;
#X connect 31 0 53 0;
#X connect 32 0 33 0;
#X connect 33 0 29 1;
#X connect 34 0 57 0;
#X connect 35 0 34 0;
#X connect 36 0 54 0;
#X connect 37 0 38 0;
#X connect 38 0 34 1;
#X connect 39 0 57 0;
#X connect 40 0 39 0;
#X connect 41 0 55 0;
#X connect 42 0 43 0;
#X connect 43 0 39 1;
#X connect 44 0 57 0;
#X connect 45 0 44 0;
#X connect 46 0 56 0;
#X connect 47 0 48 0;
#X connect 48 0 44 1;
#X connect 49 0 30 0;
#X connect 50 0 35 0;
#X connect 51 0 40 0;
#X connect 52 0 45 0;
#X connect 53 0 32 0;
#X connect 54 0 37 0;
#X connect 55 0 42 0;
#X connect 56 0 47 0;
#X connect 57 0 6 0;
