#N canvas 114 124 983 592 10;
#X obj 293 481 dac~;
#X obj 182 427 *~;
#X obj 182 386 line~;
#X obj 364 305 f;
#X obj 267 251 t f b;
#X msg 250 280 0 \$1;
#X obj 311 33 r commit;
#X msg 311 67 \$1;
#X obj 311 97 t f f;
#X obj 366 195 mtof;
#X obj 253 386 osc~ 940;
#X msg 268 194 100;
#X msg 306 279 0.5;
#X obj 405 428 *~;
#X obj 405 387 line~;
#X obj 476 387 osc~ 940;
#X obj 366 173 + 60;
#X obj 366 142 * 2;
#X connect 1 0 0 0;
#X connect 2 0 1 0;
#X connect 3 0 10 0;
#X connect 3 0 15 0;
#X connect 4 0 5 0;
#X connect 4 1 12 0;
#X connect 5 0 2 0;
#X connect 5 0 14 0;
#X connect 6 0 7 0;
#X connect 7 0 8 0;
#X connect 8 0 11 0;
#X connect 8 1 17 0;
#X connect 9 0 3 0;
#X connect 10 0 1 1;
#X connect 11 0 4 0;
#X connect 12 0 2 0;
#X connect 12 0 14 0;
#X connect 13 0 0 1;
#X connect 14 0 13 0;
#X connect 15 0 13 1;
#X connect 16 0 9 0;
#X connect 17 0 16 0;
