#N canvas 328 179 1020 428 10;
#X obj 86 154 *~;
#X obj 266 380 dac~;
#X obj 180 125 line~ 30;
#X msg 180 89 1;
#X obj 224 79 delay 10;
#X msg 224 102 0 10;
#X obj 297 159 *~;
#X obj 391 130 line~ 30;
#X msg 391 94 1;
#X obj 435 84 delay 10;
#X msg 435 107 0 10;
#X obj 509 157 *~;
#X obj 603 128 line~ 30;
#X msg 603 92 1;
#X obj 647 82 delay 10;
#X msg 647 105 0 10;
#X obj 182 19 r head;
#X obj 400 24 r adj;
#X obj 605 22 r check;
#X obj 734 171 *~;
#X obj 828 142 line~ 30;
#X msg 828 106 1;
#X obj 872 96 delay 10;
#X msg 872 119 0 10;
#X obj 830 36 r path;
#X obj 733 124 osc~ 1840;
#X obj 508 110 osc~ 2840;
#X obj 85 107 osc~ 340;
#X obj 297 112 osc~ 940;
#X obj 334 309 *~ 0.5;
#X obj 201 306 *~ 0.5;
#X obj 279 241 *~ 0.25;
#X obj 742 339 *~;
#X obj 836 310 line~ 30;
#X msg 836 274 1;
#X obj 880 264 delay 10;
#X obj 838 204 r dead;
#X obj 741 292 osc~ 240;
#X msg 880 287 0 500;
#X obj 405 316 swap 1;
#X obj 405 338 -;
#X obj 410 241 r pan;
#X connect 0 0 31 0;
#X connect 2 0 0 1;
#X connect 3 0 2 0;
#X connect 3 0 4 0;
#X connect 4 0 5 0;
#X connect 5 0 2 0;
#X connect 6 0 31 0;
#X connect 7 0 6 1;
#X connect 8 0 7 0;
#X connect 8 0 9 0;
#X connect 9 0 10 0;
#X connect 10 0 7 0;
#X connect 11 0 31 0;
#X connect 12 0 11 1;
#X connect 13 0 12 0;
#X connect 13 0 14 0;
#X connect 14 0 15 0;
#X connect 15 0 12 0;
#X connect 16 0 3 0;
#X connect 17 0 8 0;
#X connect 18 0 13 0;
#X connect 19 0 31 0;
#X connect 20 0 19 1;
#X connect 21 0 20 0;
#X connect 21 0 22 0;
#X connect 22 0 23 0;
#X connect 23 0 20 0;
#X connect 24 0 21 0;
#X connect 25 0 19 0;
#X connect 26 0 11 0;
#X connect 27 0 0 0;
#X connect 28 0 6 0;
#X connect 29 0 1 1;
#X connect 30 0 1 0;
#X connect 31 0 30 0;
#X connect 31 0 29 0;
#X connect 31 0 1 0;
#X connect 31 0 1 1;
#X connect 32 0 31 0;
#X connect 33 0 32 1;
#X connect 34 0 33 0;
#X connect 34 0 35 0;
#X connect 35 0 38 0;
#X connect 36 0 34 0;
#X connect 37 0 32 0;
#X connect 38 0 33 0;
#X connect 39 0 40 0;
#X connect 39 1 40 1;
#X connect 40 0 29 1;
#X connect 41 0 30 1;
#X connect 41 0 39 0;
