#N canvas 227 146 987 601 10;
#X obj 281 568 dac~;
#X obj 293 388 *~;
#X obj 364 347 osc~ 940;
#X obj 349 497 *~ 0.5;
#X obj 216 494 *~ 0.5;
#X obj 294 429 *~ 0.25;
#X obj 485 26 r dead;
#X obj 381 447 swap 1;
#X obj 381 469 -;
#X obj 381 422 r pan;
#X obj 60 21 r adj;
#X obj 293 347 line~;
#X obj 178 27 r head;
#X obj 283 25 r check;
#X obj 371 313 f;
#X msg 306 279 1;
#X obj 267 251 t f b;
#X msg 250 280 0 \$1;
#X msg 276 219 \$1;
#X msg 309 219 \$2;
#X msg 276 188 \$1 \$2;
#X obj 386 25 r path;
#X msg 485 49 500 240;
#X obj 483 104 r free;
#X msg 60 45 \$1 940;
#X msg 178 49 \$1 530;
#X msg 386 49 \$1 1840;
#X msg 283 47 \$1 370;
#X connect 1 0 5 0;
#X connect 2 0 1 1;
#X connect 3 0 0 1;
#X connect 4 0 0 0;
#X connect 5 0 4 0;
#X connect 5 0 3 0;
#X connect 5 0 0 0;
#X connect 5 0 0 1;
#X connect 6 0 22 0;
#X connect 7 0 8 0;
#X connect 7 1 8 1;
#X connect 8 0 3 1;
#X connect 9 0 4 1;
#X connect 9 0 7 0;
#X connect 10 0 24 0;
#X connect 11 0 1 0;
#X connect 12 0 25 0;
#X connect 13 0 27 0;
#X connect 14 0 2 0;
#X connect 15 0 11 0;
#X connect 16 0 17 0;
#X connect 16 1 15 0;
#X connect 17 0 11 0;
#X connect 18 0 16 0;
#X connect 19 0 14 0;
#X connect 20 0 18 0;
#X connect 20 0 19 0;
#X connect 21 0 26 0;
#X connect 22 0 20 0;
#X connect 23 0 20 0;
#X connect 24 0 20 0;
#X connect 25 0 20 0;
#X connect 26 0 20 0;
#X connect 27 0 20 0;
